<?xml version="1.0" encoding="iso-8859-1"?>
<!-- Generator: Adobe Illustrator 19.0.0, SVG Export Plug-In . SVG Version: 6.00 Build 0)  -->
<svg xmlns="http://www.w3.org/2000/svg" xmlns:xlink="http://www.w3.org/1999/xlink" version="1.1" id="Layer_1" x="0px" y="0px" viewBox="0 0 512 512" style="enable-background:new 0 0 512 512;" xml:space="preserve">
<g>
	<g>
		<g>
			
				<rect x="343.398" y="321.678" transform="matrix(-0.8464 -0.5325 0.5325 -0.8464 490.1448 799.9211)" width="34.044" height="15.209"/>
			
				<rect x="385.721" y="348.306" transform="matrix(0.8464 0.5325 -0.5325 0.8464 251.3963 -159.8109)" width="34.044" height="15.207"/>
			
				<rect x="301.077" y="295.052" transform="matrix(-0.8464 -0.5325 0.5325 -0.8464 426.1612 728.2249)" width="34.044" height="15.207"/>
			
				<rect x="186.513" y="285.743" transform="matrix(-0.5349 -0.8449 0.8449 -0.5349 42.2022 628.5863)" width="15.208" height="33.868"/>
			
				<rect x="144.483" y="312.348" transform="matrix(-0.5349 -0.8449 0.8449 -0.5349 -44.7896 633.9073)" width="15.208" height="33.868"/>
			
				<rect x="102.451" y="338.953" transform="matrix(-0.5349 -0.8449 0.8449 -0.5349 -131.7809 639.2287)" width="15.208" height="33.868"/>
			
				<rect x="135.152" y="175.114" transform="matrix(0.845 0.5348 -0.5348 0.845 121.3021 -53.0113)" width="33.868" height="15.208"/>
			
				<rect x="93.12" y="148.509" transform="matrix(-0.845 -0.5348 0.5348 -0.845 119.5517 346.8831)" width="33.868" height="15.208"/>
			
				<rect x="177.182" y="201.719" transform="matrix(0.845 0.5348 -0.5348 0.845 142.0475 -71.3657)" width="33.868" height="15.208"/>
			
				<rect x="395.14" y="139.069" transform="matrix(0.5326 0.8464 -0.8464 0.5326 320.367 -267.9152)" width="15.207" height="34.044"/>
			
				<rect x="310.495" y="192.323" transform="matrix(-0.5326 -0.8464 0.8464 -0.5326 310.3214 590.0693)" width="15.207" height="34.044"/>
			
				<rect x="352.816" y="165.696" transform="matrix(-0.5325 -0.8464 0.8464 -0.5325 397.69 585.086)" width="15.209" height="34.044"/>
			<path d="M294.231,233.333l-8.098-12.872l-11.891,7.481h-36.487l-11.83-7.487l-8.133,12.85l10.15,6.424v32.542l-10.173,6.439     l8.133,12.85l11.853-7.502h36.524l11.843,7.451l8.098-12.872l-10.162-6.393v-32.509L294.231,233.333z M268.85,268.85H243.15     V243.15h25.699V268.85z"/>
			<polygon points="401.013,136.624 426.646,136.624 426.646,162.256 441.854,162.256 441.854,121.416 401.013,121.416    "/>
			<polygon points="426.645,374.094 398.889,374.094 398.889,389.302 441.853,389.302 441.853,348.461 426.645,348.461    "/>
			<polygon points="85.355,349.744 70.147,349.744 70.147,390.584 110.987,390.584 110.987,375.376 85.355,375.376    "/>
			<polygon points="85.355,137.906 113.111,137.906 113.111,122.699 70.147,122.699 70.147,163.539 85.355,163.539    "/>
			<path d="M45.569,413.594H466.43V98.406H45.569V413.594z M60.777,113.614h390.445v284.771H60.777V113.614z"/>
			<polygon points="496.792,444.287 489.188,444.287 489.188,459.495 512,459.495 512,436.683 496.792,436.683    "/>
			<rect x="439.575" y="444.287" width="29.768" height="15.208"/>
			<rect x="340.345" y="444.287" width="29.769" height="15.208"/>
			<rect x="290.731" y="444.287" width="29.768" height="15.208"/>
			<rect x="389.96" y="444.287" width="29.768" height="15.208"/>
			<rect x="241.117" y="444.287" width="29.768" height="15.208"/>
			<rect x="42.658" y="444.287" width="29.768" height="15.208"/>
			<rect x="92.273" y="444.287" width="29.769" height="15.208"/>
			<rect x="191.501" y="444.287" width="29.769" height="15.208"/>
			<rect x="141.888" y="444.287" width="29.768" height="15.208"/>
			<polygon points="15.208,436.683 0,436.683 0,459.495 22.812,459.495 22.812,444.287 15.208,444.287    "/>
			<rect y="94.85" width="15.208" height="29.3"/>
			<rect y="339.017" width="15.208" height="29.3"/>
			<rect y="387.851" width="15.208" height="29.3"/>
			<rect y="290.183" width="15.208" height="29.3"/>
			<rect y="192.517" width="15.208" height="29.3"/>
			<rect y="241.351" width="15.208" height="29.3"/>
			<rect y="143.683" width="15.208" height="29.3"/>
			<polygon points="0,75.317 15.208,75.317 15.208,67.713 22.812,67.713 22.812,52.505 0,52.505    "/>
			<rect x="439.574" y="52.505" width="29.768" height="15.208"/>
			<rect x="42.657" y="52.505" width="29.768" height="15.208"/>
			<rect x="389.958" y="52.505" width="29.769" height="15.208"/>
			<rect x="340.345" y="52.505" width="29.768" height="15.208"/>
			<rect x="290.73" y="52.505" width="29.769" height="15.208"/>
			<rect x="92.273" y="52.505" width="29.768" height="15.208"/>
			<rect x="191.501" y="52.505" width="29.768" height="15.208"/>
			<rect x="241.117" y="52.505" width="29.768" height="15.208"/>
			<rect x="141.887" y="52.505" width="29.769" height="15.208"/>
			<polygon points="489.188,52.505 489.188,67.713 496.792,67.713 496.792,75.317 512,75.317 512,52.505    "/>
			<rect x="496.792" y="143.683" width="15.208" height="29.3"/>
			<rect x="496.792" y="192.517" width="15.208" height="29.3"/>
			<rect x="496.792" y="94.85" width="15.208" height="29.3"/>
			<rect x="496.792" y="241.35" width="15.208" height="29.3"/>
			<rect x="496.792" y="339.017" width="15.208" height="29.3"/>
			<rect x="496.792" y="387.851" width="15.208" height="29.3"/>
			<rect x="496.792" y="290.183" width="15.208" height="29.3"/>
		</g>
	</g>
</g>
<g>
</g>
<g>
</g>
<g>
</g>
<g>
</g>
<g>
</g>
<g>
</g>
<g>
</g>
<g>
</g>
<g>
</g>
<g>
</g>
<g>
</g>
<g>
</g>
<g>
</g>
<g>
</g>
<g>
</g>
</svg>
