<?xml version="1.0" encoding="iso-8859-1"?>
<!-- Generator: Adobe Illustrator 19.0.0, SVG Export Plug-In . SVG Version: 6.00 Build 0)  -->
<svg xmlns="http://www.w3.org/2000/svg" xmlns:xlink="http://www.w3.org/1999/xlink" version="1.1" id="Layer_1" x="0px" y="0px" viewBox="0 0 512 512" style="enable-background:new 0 0 512 512;" xml:space="preserve">
<g>
	<g>
		<g>
			<path d="M233.96,48.687V33.48c-60.283,0-109.326,49.043-109.326,109.326h15.206C139.841,90.909,182.063,48.687,233.96,48.687z"/>
			<path d="M511.971,142.806C511.971,64.062,447.908,0,369.164,0c-24.442,0-47.466,6.176-67.602,17.043     C281.426,6.176,258.402,0,233.96,0C155.217,0,91.154,64.062,91.154,142.806c0,51.435,27.337,96.601,68.241,121.746     c-0.417,4.432-0.639,8.919-0.639,13.458c0,7.461,0.597,14.949,1.757,22.328c-0.422,0.367-0.837,0.744-1.236,1.143l-71.486,71.487     l-19.115-19.115l-36.76,36.759l26.299,26.299l-8.082,8.082c-2.115-0.311-4.252-0.467-6.393-0.467     c-11.682,0-22.662,4.548-30.922,12.806c-17.053,17.054-17.053,44.804,0,61.859C21.08,507.449,32.064,512,43.749,512     c11.685,0,22.667-4.55,30.93-12.811c10.382-10.383,14.78-25.09,12.002-39.299l7.257-7.257l26.149,26.148l36.759-36.759     l-17.805-17.805l53.724-53.724c12.191,14.307,27.224,26.233,43.911,34.759c20.21,10.327,42.041,15.563,64.887,15.563     c78.744,0,142.806-64.062,142.806-142.806c0-4.539-0.222-9.026-0.639-13.458C484.634,239.407,511.971,194.241,511.971,142.806z      M301.564,34.634c36.003,22.583,59.997,62.626,59.997,108.173c0,1.867-0.049,3.722-0.129,5.571     c-18.219-8.448-38.501-13.174-59.869-13.174c-21.368,0-41.65,4.726-59.869,13.174c-0.08-1.848-0.129-3.704-0.129-5.571     C241.565,97.259,265.558,57.217,301.564,34.634z M175.806,256.366c5.938-34.605,25.857-64.492,53.719-83.618     c7.587,35.421,28.341,66.015,56.881,86.378c-16.006,7.245-33.763,11.281-52.444,11.281     C213.027,270.406,193.256,265.339,175.806,256.366z M201.55,281.901l-15.083,15.083c-3.215-1.589-6.777-2.429-10.467-2.429     c-0.322,0-0.643,0.01-0.963,0.023c-0.715-5.492-1.075-11.04-1.075-16.569c0-1.867,0.049-3.723,0.129-5.571     C182.808,276.481,191.994,279.675,201.55,281.901z M243.408,164.45c17.449-8.972,37.221-14.041,58.154-14.041     c20.933,0,40.705,5.069,58.154,14.041c-6.249,36.415-27.98,67.603-58.154,86.529C271.388,232.053,249.657,200.865,243.408,164.45     z M373.6,172.748c27.861,19.127,47.78,49.013,53.719,83.618c-17.449,8.972-37.221,14.041-58.154,14.041     c-18.681,0-36.438-4.036-52.444-11.281C345.258,238.762,366.013,208.168,373.6,172.748z M106.36,142.806     c0-70.359,57.242-127.6,127.6-127.6c18.681,0,36.438,4.036,52.444,11.281c-36.322,25.917-60.048,68.398-60.048,116.319     c0,4.539,0.222,9.026,0.639,13.458c-32.738,20.125-56.777,53.077-65.073,91.804C128.396,225.052,106.36,186.457,106.36,142.806z      M69.644,455.42l1.355,4.38c3.142,10.159,0.431,21.131-7.075,28.634c-5.388,5.389-12.554,8.357-20.176,8.357     s-14.788-2.968-20.176-8.357c-11.126-11.125-11.126-29.227,0-40.352c5.386-5.386,12.548-8.352,20.169-8.352     c2.374,0,4.742,0.294,7.037,0.875l4.187,1.058l14.001-14.002l7.099,7.099l7.12,7.12L69.644,455.42z M120.086,457.277     l-33.285-33.284l-17.835-17.836L53.42,390.611l15.255-15.254l8.363,8.363l51.25,51.25l7.053,7.053L120.086,457.277z      M199.774,341.979l-16.431,16.431l-55.055,55.056l-29.746-29.746l71.487-71.486c0.571-0.571,1.21-1.045,1.897-1.424l0.306-0.153     c1.163-0.58,2.471-0.887,3.783-0.887c1.961,0,3.818,0.666,5.315,1.889c0.22,0.18,0.433,0.372,0.638,0.576l5.377,5.376     l25.963-25.963c0.942-0.943,2.194-1.46,3.526-1.46s2.585,0.519,3.527,1.459c1.944,1.945,1.944,5.109,0,7.053l-25.963,25.964     l5.376,5.377c0.412,0.412,0.771,0.856,1.081,1.323C203.014,334.639,202.655,339.099,199.774,341.979z M301.562,405.61     c-38.319,0-73.681-16.643-98.018-45.895l6.983-6.983c7.341-7.342,8.838-18.348,4.49-27.183l16.098-16.097     c6.446-6.446,7.605-16.2,3.494-23.847c24.199-0.108,46.996-6.265,66.952-17.035c20.136,10.867,43.161,17.043,67.602,17.043     c21.368,0,41.65-4.726,59.869-13.174c0.08,1.848,0.129,3.704,0.129,5.571C429.162,348.369,371.921,405.61,301.562,405.61z      M441.201,248.068c-8.296-38.726-32.335-71.678-65.073-91.804c0.417-4.432,0.639-8.919,0.639-13.458     c0-47.921-23.727-90.402-60.048-116.319c16.006-7.245,33.763-11.281,52.445-11.281c70.359,0,127.6,57.242,127.6,127.6     C496.765,186.457,474.729,225.052,441.201,248.068z"/>
			<path d="M301.562,377.94c-25.141,0-48.777-9.79-66.554-27.568l-10.753,10.753c20.65,20.649,48.105,32.021,77.308,32.021     s56.658-11.372,77.308-32.021l-10.753-10.753C350.339,368.149,326.703,377.94,301.562,377.94z"/>
			<path d="M369.164,33.477v15.206c51.899,0,94.123,42.223,94.123,94.123h15.206C478.493,82.522,429.448,33.477,369.164,33.477z"/>
			
				<rect x="171.438" y="330.091" transform="matrix(-0.707 -0.7072 0.7072 -0.707 64.295 709.1206)" width="15.206" height="22.302"/>
			
				<rect x="141.635" y="349.68" transform="matrix(-0.7071 -0.7071 0.7071 -0.7071 -7.586 738.8972)" width="15.206" height="42.679"/>
		</g>
	</g>
</g>
<g>
</g>
<g>
</g>
<g>
</g>
<g>
</g>
<g>
</g>
<g>
</g>
<g>
</g>
<g>
</g>
<g>
</g>
<g>
</g>
<g>
</g>
<g>
</g>
<g>
</g>
<g>
</g>
<g>
</g>
</svg>
