<?xml version="1.0" encoding="iso-8859-1"?>
<!-- Generator: Adobe Illustrator 19.0.0, SVG Export Plug-In . SVG Version: 6.00 Build 0)  -->
<svg xmlns="http://www.w3.org/2000/svg" xmlns:xlink="http://www.w3.org/1999/xlink" version="1.1" id="Layer_1" x="0px" y="0px" viewBox="0 0 512 512" style="enable-background:new 0 0 512 512;" xml:space="preserve">
<g>
	<g>
		<g>
			<path d="M0.006,14.285v441.348L0,455.639v42.075h0.006h38.078H512V14.285H0.006z M32.863,482.507H15.214v-20.622l25.589-25.86     l12.872-13.008l24.35,24.35L32.863,482.507z M151.927,406.374l-61.033,32.355L64.4,412.236l123.164-123.167l5.502-5.502     l-15.862,109.407L151.927,406.374z M172.356,412.758v35.486h-66.938L172.356,412.758z M172.356,282.77L53.645,401.481     l-0.028-0.028l-5.399,5.457l-1.243,1.243V219.555h125.381V282.77z M496.792,171.343h-17.743v15.208h17.743v295.956H218.487     v-17.743h-15.208v17.743H57.629l24.49-19.056h105.446v-58.756l3.583-1.9l12.132-83.677v37.866h15.208v-44.909H204.3l4.557-31.437     h9.629v-44.909h-15.208v16.117l-15.715,15.715v-63.216H31.767v219.188l-16.553,16.73V186.55h18.396v-15.208H15.214V29.493     h481.578V171.343z"/>
			<path d="M480.233,70.003L480.233,70.003H31.767v84.151h448.465V70.003z M465.025,138.946H46.975V85.211h418.05V138.946z"/>
			<path d="M234.24,463.451h245.992V204.347H234.24V463.451z M249.448,219.555h215.576v228.69H249.448V219.555z"/>
			<rect x="361.188" y="337.535" width="83.725" height="15.208"/>
			<rect x="325.145" y="376.67" width="119.767" height="15.208"/>
			<rect x="341.884" y="411.161" width="103.029" height="15.208"/>
			<rect x="303.266" y="411.161" width="26.36" height="15.208"/>
			<rect x="65.394" y="301.522" width="72.998" height="15.208"/>
			<rect x="65.394" y="334.899" width="34.134" height="15.208"/>
			<rect x="312.127" y="104.478" width="131.062" height="15.208"/>
			<rect x="267.152" y="104.478" width="27.374" height="15.208"/>
			<rect x="232.124" y="171.343" width="48.418" height="15.208"/>
			<rect x="396.734" y="171.343" width="48.417" height="15.208"/>
			<rect x="314.429" y="171.343" width="48.418" height="15.208"/>
			<rect x="67.503" y="171.343" width="48.418" height="15.208"/>
			<rect x="149.808" y="171.343" width="48.417" height="15.208"/>
			<rect x="203.279" y="178.947" width="15.208" height="25.347"/>
			<rect x="203.279" y="388.42" width="15.208" height="44.914"/>
			
				<rect x="114.328" y="331.709" transform="matrix(-0.7071 -0.7071 0.7071 -0.7071 -58.8427 730.7972)" width="15.208" height="91.754"/>
		</g>
	</g>
</g>
<g>
</g>
<g>
</g>
<g>
</g>
<g>
</g>
<g>
</g>
<g>
</g>
<g>
</g>
<g>
</g>
<g>
</g>
<g>
</g>
<g>
</g>
<g>
</g>
<g>
</g>
<g>
</g>
<g>
</g>
</svg>
