<?xml version="1.0" encoding="iso-8859-1"?>
<!-- Generator: Adobe Illustrator 19.0.0, SVG Export Plug-In . SVG Version: 6.00 Build 0)  -->
<svg xmlns="http://www.w3.org/2000/svg" xmlns:xlink="http://www.w3.org/1999/xlink" version="1.1" id="Layer_1" x="0px" y="0px" viewBox="0 0 511.999 511.999" style="enable-background:new 0 0 511.999 511.999;" xml:space="preserve">
<g>
	<g>
		<g>
			<path d="M256,26.686v15.196c16.287,0,29.539,13.251,29.539,29.539h15.196C300.735,46.753,280.667,26.686,256,26.686z"/>
			<path d="M445.098,450.953h15.196c0-22.521-18.322-40.843-40.841-40.843v15.196C433.594,425.306,445.098,436.811,445.098,450.953z     "/>
			<path d="M255.999,425.306c14.141,0,25.646,11.505,25.646,25.646h15.196c0-22.521-18.322-40.843-40.842-40.843V425.306z"/>
			<path d="M92.546,425.306c14.142,0,25.646,11.505,25.646,25.646h15.196c0-22.521-18.322-40.843-40.843-40.843V425.306z"/>
			<polygon points="118.483,263.598 133.679,263.598 133.679,222.464 92.546,222.464 92.546,237.661 118.483,237.661    "/>
			<polygon points="281.937,263.598 297.133,263.598 297.133,222.464 255.999,222.464 255.999,237.661 281.937,237.661    "/>
			<polygon points="445.39,263.598 460.586,263.598 460.586,222.464 419.453,222.464 419.453,237.661 445.39,237.661    "/>
			<path d="M356.135,200.28v126.636h126.636V200.28h-55.72V159.05H263.597v-16.618c35.822-3.806,63.822-34.198,63.822-71.012     c0-39.382-32.039-71.42-71.42-71.42c-39.382,0-71.42,32.039-71.42,71.42c0,36.815,28.001,67.206,63.822,71.012v16.618H84.948     v41.229h-55.72v126.636h126.636V200.28h-55.72v-26.033h148.258v26.033h-55.72v126.636h55.72v21.761H84.948v41.72     c-30.086,3.755-53.448,29.47-53.448,60.556c0,33.662,27.386,61.046,61.046,61.046c33.662,0,61.046-27.385,61.046-61.046     c0-31.087-23.363-56.802-53.448-60.556v-26.524h148.258v26.524c-30.086,3.755-53.448,29.47-53.448,60.556     c0,33.662,27.386,61.046,61.046,61.046s61.047-27.385,61.047-61.046c0-31.087-23.363-56.802-53.448-60.556v-26.524h148.258     v26.524c-30.087,3.755-53.448,29.47-53.448,60.556c0,33.662,27.386,61.046,61.046,61.046c33.661,0,61.047-27.385,61.047-61.046     c0-31.087-23.363-56.802-53.448-60.556v-41.72H263.597v-21.761h55.72V200.28h-55.72v-26.033h148.258v26.033H356.135z      M140.667,215.476v96.243H44.424v-96.243H140.667z M138.396,450.953c0,25.282-20.569,45.85-45.85,45.85     s-45.85-20.569-45.85-45.85c0-25.281,20.569-45.85,45.85-45.85S138.396,425.672,138.396,450.953z M465.303,450.953     c0,25.282-20.569,45.85-45.85,45.85c-25.283,0-45.85-20.569-45.85-45.85c0-25.281,20.569-45.85,45.85-45.85     S465.303,425.672,465.303,450.953z M301.849,450.953c0,25.282-20.569,45.85-45.85,45.85c-25.282,0-45.85-20.569-45.85-45.85     c0-25.281,20.569-45.85,45.85-45.85S301.849,425.672,301.849,450.953z M304.121,215.476v96.243h-96.243v-96.243H304.121z      M255.999,127.645c-31.002,0-56.224-25.222-56.224-56.224s25.222-56.224,56.224-56.224s56.224,25.222,56.224,56.224     S287.001,127.645,255.999,127.645z M467.575,215.476v96.243h-96.243v-96.243H467.575z"/>
		</g>
	</g>
</g>
<g>
</g>
<g>
</g>
<g>
</g>
<g>
</g>
<g>
</g>
<g>
</g>
<g>
</g>
<g>
</g>
<g>
</g>
<g>
</g>
<g>
</g>
<g>
</g>
<g>
</g>
<g>
</g>
<g>
</g>
</svg>
