<svg id="Capa_1" enable-background="new 0 0 512 512" height="512" viewBox="0 0 512 512" width="512" xmlns="http://www.w3.org/2000/svg"><g><path d="m492.02 192.541c-11.212-15.994-26.21-28.573-43.702-36.728.339-3.242.51-6.504.51-9.758 0-50.086-30.115-80.184-80.654-80.763-11.735-25.74-37.423-41.913-67.453-42.331-15.368-.21-27.767 4.195-36.805 13.108-3.662 3.611-6.583 7.812-8.915 12.37-2.431-4.129-5.263-7.791-8.492-10.975-9.99-9.851-23.328-14.711-39.639-14.503-30.028.419-55.715 16.59-67.455 42.331-50.539.58-80.653 30.677-80.653 80.763 0 3.946.251 7.903.748 11.82-36.391 18.893-59.51 56.616-59.51 98.125 0 41.506 23.123 79.231 59.509 98.125-.497 3.917-.748 7.874-.748 11.82 0 50.086 30.116 80.184 80.654 80.763 11.735 25.74 37.423 41.913 67.453 42.331.364.005.726.008 1.087.008 15.817 0 28.784-4.88 38.551-14.511 3.229-3.185 6.061-6.846 8.493-10.975 2.331 4.558 5.253 8.76 8.915 12.371 8.828 8.706 20.847 13.116 35.738 13.115.354 0 .711-.002 1.067-.007 30.027-.419 55.715-16.59 67.455-42.331 50.539-.58 80.652-30.677 80.652-80.763 0-3.253-.171-6.515-.51-9.758 17.492-8.155 32.49-20.734 43.702-36.728 13.073-18.649 19.982-40.593 19.982-63.46s-6.909-44.812-19.98-63.459zm-58.273 148.104c-4.436 1.686-7.076 6.256-6.32 10.94.025.158.052.316.082.472.875 4.564 1.318 9.237 1.318 13.888 0 39.757-21.49 60.771-62.146 60.771h-.215c-6.973 0-13.252 4.157-16.002 10.593-8.248 19.257-27.416 31.416-50.023 31.732-9.962.15-17.326-2.265-22.483-7.35-8.047-7.934-11.958-23.57-11.958-47.801 0-5.523-4.478-10-10-10-5.523 0-10 4.477-10 10 0 21.625-4.681 37.672-13.536 46.405-6.122 6.038-14.385 8.898-25.316 8.746-22.607-.315-41.775-12.476-50.022-31.734-2.755-6.438-9.033-10.591-15.975-10.591h-.244c-40.656 0-62.146-21.015-62.146-60.771 0-4.656.443-9.33 1.319-13.894.284-1.484.375-3.001.272-4.507-.257-3.724-2.566-6.996-5.99-8.484-33.023-14.357-54.362-46.96-54.362-83.06s21.339-68.703 54.363-83.06c3.424-1.489 5.734-4.761 5.99-8.485.104-1.506.012-3.022-.273-4.513-.875-4.561-1.318-9.233-1.318-13.887 0-39.757 21.49-60.771 62.146-60.771h.215c6.973 0 13.252-4.157 16.002-10.593 8.248-19.257 27.416-31.416 50.023-31.732 10.922-.141 19.194 2.708 25.316 8.746 8.856 8.731 13.536 24.778 13.536 46.404 0 5.523 4.477 10 10 10 5.522 0 10-4.477 10-10 0-24.229 3.912-39.865 11.959-47.801 5.157-5.085 12.557-7.488 22.481-7.35 22.607.315 41.775 12.476 50.022 31.734 2.755 6.438 9.033 10.591 15.974 10.591h.244c40.656 0 62.146 21.015 62.146 60.771 0 4.654-.443 9.328-1.309 13.844-.033.164-.062.327-.088.491-.77 4.692 1.872 9.277 6.316 10.966 34.845 13.238 58.255 47.254 58.255 84.645s-23.41 71.407-58.253 84.645z"/><path d="m362.6 115.265h-.015c-5.517 0-9.992 4.468-10 9.985-.008 5.523 4.463 10.007 9.985 10.015 7.249.011 13.154 5.916 13.165 13.165.008 5.518 4.483 9.985 10 9.985h.015c5.522-.008 9.993-4.492 9.985-10.015-.026-18.244-14.891-33.109-33.135-33.135z"/><path d="m385.75 353.585h-.015c-5.517 0-9.992 4.468-10 9.985-.011 7.249-5.916 13.154-13.165 13.165-5.522.008-9.993 4.492-9.985 10.015.008 5.518 4.483 9.985 10 9.985h.015c18.244-.026 33.109-14.891 33.136-33.135.007-5.524-4.464-10.008-9.986-10.015z"/><path d="m126.25 158.415h.015c5.516 0 9.992-4.468 10-9.985.011-7.249 5.916-13.154 13.165-13.165 5.523-.008 9.993-4.492 9.985-10.015-.008-5.518-4.483-9.985-10-9.985h-.015c-18.244.026-33.109 14.891-33.135 33.135-.008 5.523 4.462 10.007 9.985 10.015z"/><path d="m149.429 376.735c-7.249-.011-13.154-5.916-13.165-13.165-.008-5.518-4.483-9.985-10-9.985h-.015c-5.523.008-9.993 4.492-9.985 10.015.026 18.244 14.891 33.109 33.135 33.135h.015c5.516 0 9.992-4.468 10-9.985.008-5.524-4.462-10.008-9.985-10.015z"/><path d="m353.805 293.045h5.708c5.522 0 10-4.477 10-10s-4.478-10-10-10h-5.708v-34.09h5.708c5.522 0 10-4.477 10-10s-4.478-10-10-10h-5.708v-33.55c0-15.003-12.206-27.21-27.21-27.21h-33.55v-5.708c0-5.523-4.478-10-10-10s-10 4.477-10 10v5.708h-34.09v-5.708c0-5.523-4.477-10-10-10s-10 4.477-10 10v5.708h-33.55c-15.003 0-27.21 12.207-27.21 27.21v33.55h-5.708c-5.523 0-10 4.477-10 10s4.477 10 10 10h5.708v34.09h-5.708c-5.523 0-10 4.477-10 10s4.477 10 10 10h5.708v33.55c0 15.003 12.207 27.21 27.21 27.21h33.55v5.708c0 5.523 4.477 10 10 10s10-4.477 10-10v-5.708h34.09v5.708c0 5.523 4.478 10 10 10s10-4.477 10-10v-5.708h33.55c15.004 0 27.21-12.207 27.21-27.21zm-27.21 40.759h-33.55v-12.218c0-5.523-4.478-10-10-10s-10 4.477-10 10v12.218h-34.09v-12.218c0-5.523-4.477-10-10-10s-10 4.477-10 10v12.218h-33.55c-3.976 0-7.21-3.234-7.21-7.21v-33.55h12.218c5.523 0 10-4.477 10-10s-4.477-10-10-10h-12.218v-34.09h12.218c5.523 0 10-4.477 10-10s-4.477-10-10-10h-12.218v-33.55c0-3.976 3.234-7.21 7.21-7.21h33.55v12.218c0 5.523 4.477 10 10 10s10-4.477 10-10v-12.218h34.09v12.218c0 5.523 4.478 10 10 10s10-4.477 10-10v-12.218h33.55c3.976 0 7.21 3.234 7.21 7.21v33.55h-12.219c-5.522 0-10 4.477-10 10s4.478 10 10 10h12.219v34.09h-12.219c-5.522 0-10 4.477-10 10s4.478 10 10 10h12.219v33.55c0 3.976-3.235 7.21-7.21 7.21z"/></g></svg>