<?xml version="1.0" encoding="UTF-8"?>
<svg id="Line" xmlns="http://www.w3.org/2000/svg" viewBox="0 0 500 500">
  <path d="m456.7,323.75c-3.19-78.99-50.1-147.4-119.32-179.36h110.1c5.3,0,9.6-4.29,9.6-9.6s-4.3-9.6-9.6-9.6h-156.16c-4.38-18.82-21.2-32.92-41.33-32.92s-36.95,14.1-41.33,32.92H52.52c-5.3,0-9.6,4.29-9.6,9.6s4.3,9.6,9.6,9.6h110.1c-69.21,31.96-116.12,100.37-119.32,179.36-19.01,4.23-33.3,21.17-33.3,41.44,0,23.45,19.07,42.52,42.52,42.52s42.51-19.07,42.51-42.52c0-20-13.92-36.7-32.54-41.21,3.71-85.54,64.07-157.1,147.59-175.1,5.85,16.5,21.45,28.42,39.93,28.42s34.08-11.92,39.93-28.42c83.52,18,143.88,89.56,147.59,175.1-18.62,4.51-32.54,21.21-32.54,41.21,0,23.45,19.07,42.52,42.51,42.52s42.52-19.07,42.52-42.52c0-20.27-14.28-37.21-33.3-41.44Zm-380.88,41.44c0,12.85-10.46,23.32-23.31,23.32s-23.32-10.46-23.32-23.32,10.46-23.32,23.32-23.32,23.31,10.46,23.31,23.32Zm174.17-207.08c-12.86,0-23.32-10.46-23.32-23.32s10.46-23.32,23.32-23.32,23.32,10.46,23.32,23.32-10.46,23.32-23.32,23.32Zm197.48,230.4c-12.85,0-23.31-10.46-23.31-23.32s10.46-23.32,23.31-23.32,23.32,10.46,23.32,23.32-10.46,23.32-23.32,23.32Z" stroke-width="0"/>
  <path d="m258.59,218.27c-3.25-6.51-13.92-6.51-17.18,0l-87.77,175.55c-1.76,3.53-1.19,7.78,1.45,10.72,2.65,2.94,6.83,3.97,10.5,2.57l84.4-31.65,84.4,31.65c1.1.41,2.24.61,3.37.61,2.67,0,5.28-1.12,7.13-3.18,2.64-2.93,3.22-7.18,1.45-10.72l-87.77-175.55Zm-5.22,137.93c-1.09-.4-2.23-.61-3.37-.61s-2.28.21-3.37.61l-64.88,24.34,68.25-136.51,68.25,136.51-64.88-24.34Z" stroke-width="0"/>
</svg>